<svg width="25" height="24" viewBox="0 0 25 24" fill="none" xmlns="http://www.w3.org/2000/svg">
<path d="M6.75 2C5.51625 2 4.5 3.01625 4.5 4.25V19.75C4.5 20.9838 5.51625 22 6.75 22H18.25C19.4838 22 20.5 20.9838 20.5 19.75V9.25C20.5 9.0511 20.4209 8.86036 20.2803 8.71973L20.2725 8.71191L13.7803 2.21973C13.6396 2.07907 13.4489 2.00004 13.25 2H6.75ZM6.75 3.5H12.5V7.75C12.5 8.98375 13.5162 10 14.75 10H19V19.75C19 20.1733 18.6732 20.5 18.25 20.5H6.75C6.32675 20.5 6 20.1733 6 19.75V4.25C6 3.82675 6.32675 3.5 6.75 3.5ZM14 4.56055L17.9395 8.5H14.75C14.3268 8.5 14 8.17325 14 7.75V4.56055ZM9.25 12.5C9.15062 12.4986 9.05194 12.517 8.95972 12.554C8.86749 12.5911 8.78355 12.6461 8.71277 12.7159C8.642 12.7857 8.58579 12.8688 8.54743 12.9605C8.50907 13.0522 8.48932 13.1506 8.48932 13.25C8.48932 13.3494 8.50907 13.4478 8.54743 13.5395C8.58579 13.6312 8.642 13.7143 8.71277 13.7841C8.78355 13.8539 8.86749 13.9089 8.95972 13.946C9.05194 13.983 9.15062 14.0014 9.25 14H15.75C15.8494 14.0014 15.9481 13.983 16.0403 13.946C16.1325 13.9089 16.2164 13.8539 16.2872 13.7841C16.358 13.7143 16.4142 13.6312 16.4526 13.5395C16.4909 13.4478 16.5107 13.3494 16.5107 13.25C16.5107 13.1506 16.4909 13.0522 16.4526 12.9605C16.4142 12.8688 16.358 12.7857 16.2872 12.7159C16.2164 12.6461 16.1325 12.5911 16.0403 12.554C15.9481 12.517 15.8494 12.4986 15.75 12.5H9.25ZM9.25 16C9.15062 15.9986 9.05194 16.017 8.95972 16.054C8.86749 16.0911 8.78355 16.1461 8.71277 16.2159C8.642 16.2857 8.58579 16.3688 8.54743 16.4605C8.50907 16.5522 8.48932 16.6506 8.48932 16.75C8.48932 16.8494 8.50907 16.9478 8.54743 17.0395C8.58579 17.1312 8.642 17.2143 8.71277 17.2841C8.78355 17.3539 8.86749 17.4089 8.95972 17.446C9.05194 17.483 9.15062 17.5014 9.25 17.5H13.75C13.8494 17.5014 13.9481 17.483 14.0403 17.446C14.1325 17.4089 14.2164 17.3539 14.2872 17.2841C14.358 17.2143 14.4142 17.1312 14.4526 17.0395C14.4909 16.9478 14.5107 16.8494 14.5107 16.75C14.5107 16.6506 14.4909 16.5522 14.4526 16.4605C14.4142 16.3688 14.358 16.2857 14.2872 16.2159C14.2164 16.1461 14.1325 16.0911 14.0403 16.054C13.9481 16.017 13.8494 15.9986 13.75 16H9.25Z" fill="black" fill-opacity="0.4"/>
</svg>
